<svg xmlns="http://www.w3.org/2000/svg" viewBox="0 0 64 64">
  <defs>
    <linearGradient id="g" x1="0" y1="0" x2="1" y2="1">
      <stop offset="0" stop-color="#dcbe7e"/>
      <stop offset=".5" stop-color="#b98d3e"/>
      <stop offset="1" stop-color="#96702c"/>
    </linearGradient>
  </defs>
  <path d="M32 2c15 0 28 12 28 28v26a6 6 0 0 1-6 6H10a6 6 0 0 1-6-6V30C4 14 17 2 32 2z" fill="#f3ded8"/>
  <path d="M32 6c13 0 24 10.5 24 24v24a4 4 0 0 1-4 4H12a4 4 0 0 1-4-4V30C8 16.5 19 6 32 6z" fill="none" stroke="url(#g)" stroke-width="1.6"/>
  <text x="32" y="43" text-anchor="middle" font-family="Georgia, 'Times New Roman', serif" font-style="italic" font-size="34" fill="url(#g)">S</text>
</svg>
